# Blender 3.5.1
# www.blender.org
mtllib ala_der.mtl
o ave_ala_izq
v 0.050238 -0.095343 0.034240
v 0.042086 -0.205342 0.312379
v 0.095864 -0.207629 0.049432
v 0.112201 -0.522190 0.063935
v 0.103168 -0.491453 0.189129
v 0.049283 -0.281907 -0.273921
v 0.089106 -0.533374 -0.210513
v 0.026852 -0.121217 0.014084
v 0.107369 -0.229932 -0.247613
v 0.012214 -0.162237 -0.270626
v 0.007324 -0.059312 0.010753
v -0.015310 -0.047461 0.273681
v -0.000992 -0.053684 0.124712
v 0.080391 -0.195892 0.175986
v 0.161377 -0.486270 0.078196
v 0.050297 -0.206170 0.312737
v 0.034473 -0.097837 0.144394
v 0.141346 -0.469990 0.194520
v 0.163210 -0.486333 -0.200369
v 0.063130 -0.121913 -0.252592
v 0.027424 -0.039200 0.026644
v 0.011515 -0.048809 0.128598
vn -0.6368 0.7659 -0.0886
vn 0.5589 -0.8292 -0.0046
vn 0.0585 -0.3877 0.9199
vn 0.5535 0.1223 -0.8238
vn 0.3008 0.1004 -0.9484
vn -0.3427 0.9367 -0.0721
vn 0.9747 0.2231 0.0139
vn 0.9662 0.2309 0.1146
vn 0.9035 0.4161 0.1030
vn 0.8704 0.4427 0.2152
vn 0.9257 0.3782 0.0070
vn 0.8922 0.4233 0.1574
vn -0.9752 -0.2205 0.0198
vn 0.9477 0.2260 0.2255
vn 0.4996 -0.8370 0.2231
vn -0.5878 0.8074 -0.0511
vn 0.3558 -0.1345 -0.9248
vt 0.531250 0.625000
vt 0.500000 0.687500
vt 0.500000 0.625000
vt 0.437500 0.625000
vt 0.437500 0.655060
vt 0.500000 0.562886
vt 0.437500 0.562886
vt 0.531250 0.625000
vt 0.500000 0.562886
vt 0.531250 0.562886
vt 0.546875 0.625000
vt 0.546875 0.687500
vt 0.546875 0.655060
vt 0.500000 0.655060
vt 0.437500 0.625000
vt 0.500000 0.687500
vt 0.531250 0.655060
vt 0.437500 0.655060
vt 0.437500 0.562886
vt 0.531250 0.562886
vt 0.546875 0.625000
vt 0.546875 0.655060
s 0
usemtl Material.001
f 10/10/1 8/8/1 1/1/1 20/20/1
f 4/4/2 7/7/2 19/19/2 15/15/2
f 2/2/3 5/5/3 18/18/3 16/16/3
f 8/8/4 11/11/4 21/21/4 1/1/4
f 6/6/5 10/10/5 20/20/5 9/9/5
f 13/13/6 12/12/6 22/22/6
f 19/19/7 9/9/7 3/3/7 15/15/7
f 15/15/8 3/3/8 14/14/8 18/18/8
f 3/3/9 1/1/9 17/17/9 14/14/9
f 2/2/10 16/16/10 14/14/10 17/17/10 22/22/10 12/12/10
f 9/9/11 20/20/11 1/1/11 3/3/11
f 1/1/12 21/21/12 22/22/12 17/17/12
f 4/4/13 5/5/13 2/2/13 12/12/13 13/13/13 11/11/13 8/8/13 10/10/13 6/6/13 7/7/13
f 16/16/14 18/18/14 14/14/14
f 5/5/15 4/4/15 15/15/15 18/18/15
f 11/11/16 13/13/16 22/22/16 21/21/16
f 7/7/17 6/6/17 9/9/17 19/19/17
